<?xml version="1.0" encoding="UTF-8" standalone="no"?>
<!DOCTYPE svg PUBLIC "-//W3C//DTD SVG 1.1//EN" "http://www.w3.org/Graphics/SVG/1.1/DTD/svg11.dtd">
<svg version="1.1" xmlns="http://www.w3.org/2000/svg" xmlns:xlink="http://www.w3.org/1999/xlink" preserveAspectRatio="xMidYMid meet" viewBox="0 0 820 351" width="820" height="351"><defs><path d="M756.09 11.4L816.02 11.4L816.02 340.52L756.09 340.52L756.09 11.4Z" id="a1Jz32UZfT"></path><path d="M818 10.58L754.11 10.58" id="j6EupHoHQ"></path><path d="M818 341.02L754.11 341.02" id="daViYHaZj"></path><path d="M343.02 341.34L277 341.34L117.79 340.52C84.45 339.76 61 335.82 47.46 328.71C27.14 318.04 14.45 275.89 7.85 252.52C3.45 236.95 1.53 211.43 2.09 175.96" id="a1AID193UI"></path><path d="M39.24 175.96C40.93 144.39 41.78 125.55 41.78 119.46C41.78 113.36 41.34 110.62 40.46 111.22C33.21 111.12 28.23 114.13 25.52 120.22C22.82 126.32 21.46 144.9 21.46 175.96" id="acMe4nPJe"></path><path d="M112.6 11.4C95.18 19.95 82.9 27.1 75.77 32.86C68.64 38.62 53.25 65.62 29.59 113.87" id="a3JXsNpia"></path><path d="M756.09 78.57L732.43 69.94C671.83 55.38 629.34 46.91 604.96 44.54C580.59 42.17 546.9 41.32 503.9 42L297.22 44.54L264.21 48.1C217.66 56.56 186.59 62.49 171.02 65.87C157.39 68.84 127.3 77.15 80.75 90.81C72.22 93.31 63.92 96.54 55.93 100.45C52.52 102.12 43.99 106.31 30.35 112.99" id="b18ZyCV0w"></path><path d="M39.24 175.96C40.93 207.53 41.78 226.36 41.78 232.46C41.78 238.55 41.34 241.3 40.46 240.7C33.21 240.79 28.23 237.79 25.52 231.7C22.82 225.6 21.46 207.02 21.46 175.96" id="a2ETaWqO6w"></path><path d="M112.6 340.9C95.18 332.35 82.9 325.19 75.77 319.44C68.64 313.68 53.25 286.68 29.59 238.42" id="adUfRmNlF"></path><path d="M756.09 272.85L732.43 281.48C671.83 296.04 629.34 304.51 604.96 306.88C580.59 309.25 546.9 310.09 503.9 309.42L297.22 306.88L264.21 303.32C217.66 294.86 186.59 288.93 171.02 285.55C157.39 282.58 127.3 274.27 80.75 260.61C72.22 258.11 63.92 254.88 55.93 250.97C52.52 249.29 43.99 245.11 30.35 238.42" id="blchOQcsA"></path><path d="M343.02 10.58L277 10.58L117.79 11.4C84.45 12.16 61 16.1 47.46 23.21C27.14 33.88 14.45 76.03 7.85 99.4C3.45 114.97 1.53 140.49 2.09 175.96" id="a2E3rVqH9u"></path><path d="M328.04 20.52L354.96 3.25L345.05 32.96L340.48 32.96L333.37 28.9L323.98 36.77L314.33 35.25L312.04 32.96L328.04 20.52Z" id="c2YzpYxSiE"></path><path d="M328.3 330.34L355.21 347.61L345.31 317.89L340.74 317.89L333.63 321.96L324.23 314.08L314.58 315.61L312.3 317.89L328.3 330.34Z" id="dviC4C0Gz"></path><path d="M300.36 55.11C297.32 54.09 292.92 53.07 287.16 52.06C281.41 51.04 275.97 51.04 270.87 52.06C237.04 56.8 214.2 60.32 202.35 62.63C190.5 64.94 166.77 71.07 131.16 81.01L37.58 109.45" id="d1gH38q6C5"></path><path d="M301.7 296.6C298.65 297.62 294.25 298.64 288.49 299.65C282.74 300.67 277.31 300.67 272.2 299.65C238.37 294.91 215.53 291.39 203.68 289.08C191.83 286.77 168.1 280.64 132.49 270.7L38.91 242.26" id="a4gMGSpWor"></path><path d="M445.6 41.78L294.27 40.38C176.45 41.39 112.97 44.36 103.83 49.27C94.69 54.18 84.7 68.84 73.87 93.27C67.78 104.74 63.71 116.56 61.68 128.75C59.65 140.94 58.13 156.68 57.12 175.96" id="derrlnt2x"></path><path d="M445.6 310.14L294.27 311.54C176.45 310.53 112.97 307.56 103.83 302.65C94.69 297.74 84.7 283.08 73.87 258.65C67.78 247.18 63.71 235.35 61.68 223.16C59.65 210.97 58.13 195.24 57.12 175.96" id="a1thG4yFMx"></path><path d="M246.53 51.3C213.02 52.82 191.03 53.92 180.57 54.6C164.87 55.61 100.79 60.19 95.2 64.25C91.48 66.96 87.07 75.59 82 90.15" id="d3CJiRNZtw"></path><path d="M246.53 300.41C213.02 298.89 191.03 297.79 180.57 297.11C164.87 296.1 100.79 291.52 95.2 287.46C91.48 284.75 87.07 276.12 82 261.56" id="bVioK9C0F"></path><path d="M143.98 81.14C138.82 83.85 135.09 86.05 132.81 87.74C130.52 89.43 129.67 91.46 128.74 92.31C126.96 93.93 122.16 108.59 114.33 136.28C113.99 137.46 114.47 138.73 115.52 139.39C116.03 139.72 117.3 140.53 119.35 141.83L178.26 130.15L116.56 145.9C111.98 143.86 109.36 141.75 108.68 139.55C107.67 136.25 120.11 92.82 126.46 87.74C129.82 85.05 145.53 80.64 162.57 76.38C177.68 72.6 193.85 68.93 203.39 66.66C216.94 63.44 240.47 59.72 273.98 55.49" id="c5z4O1yvzA"></path><path d="M143.98 269.57C138.82 266.86 135.09 264.66 132.81 262.96C130.52 261.27 129.67 259.24 128.74 258.39C126.96 256.77 122.16 242.12 114.33 214.43C113.99 213.24 114.47 211.97 115.52 211.31C116.03 210.98 117.3 210.17 119.35 208.87L178.26 220.55L116.56 204.81C111.98 206.84 109.36 208.95 108.68 211.15C107.67 214.46 120.11 257.88 126.46 262.96C129.82 265.65 145.53 270.06 162.57 274.32C177.68 278.1 193.85 281.77 203.39 284.04C216.94 287.26 240.47 290.98 273.98 295.21" id="a2fbdYsRnO"></path><path d="M275.51 59.02L273.98 55.49L270.43 51.3L264.33 47.84" id="b8s1kKzAcl"></path><path d="M275.51 292.14L273.98 295.67L270.43 299.86L264.33 303.32" id="a49l0QBrAu"></path><path d="M300.36 54.95C290.73 54.11 284.14 54.11 280.59 54.95C275.25 56.22 263.83 74.25 253.92 98.63C244.02 123.01 237.61 155.74 237.93 175.96" id="a52mqBksdI"></path><path d="M300.36 296.96C290.73 297.81 284.14 297.81 280.59 296.96C275.25 295.7 263.83 277.66 253.92 253.28C244.02 228.9 237.61 196.18 237.93 175.96" id="anGsGVXqT"></path><path d="M286.17 54.32C275.7 67.81 265.86 85.17 258.49 105.24C251.13 125.3 245.74 155.74 245.54 175.96" id="bTrovwYwG"></path><path d="M286.17 297.6C275.7 284.11 265.86 266.74 258.49 246.68C251.13 226.62 245.74 196.18 245.54 175.96" id="a1KBXehTK"></path><path d="M359.12 175.96C359.13 154.06 357.63 144.13 364.02 107.37C367.25 88.78 368.7 80.02 368.38 81.09C369.68 76.79 366.95 72.31 362.52 71.52C357.46 70.61 344.79 68.33 324.53 64.69L289.55 59.02C275.5 78.03 266.19 94.42 261.62 108.17C254.76 128.8 250 157.49 250.19 175.96" id="jYT1HTcSf"></path><path d="M359.12 175.96C359.13 197.86 357.63 207.79 364.02 244.55C367.25 263.14 368.7 271.9 368.38 270.83C369.68 275.13 366.95 279.61 362.52 280.4C357.46 281.31 344.79 283.59 324.53 287.23L289.55 292.9C275.5 273.89 266.19 257.5 261.62 243.75C254.76 223.12 250 194.43 250.19 175.96" id="bFvKiP8WC"></path><path d="M362.93 175.96C362.93 165.06 363.88 139.74 369.84 100.01C370.69 94.34 371.96 88.19 373.64 81.54C375.16 75.57 371.54 69.51 365.57 68.01C363.42 67.46 358.03 66.11 349.42 63.95L300.36 55.49" id="b1vpRo3KtC"></path><path d="M362.93 175.96C362.93 186.86 363.88 212.18 369.84 251.91C370.69 257.58 371.96 263.73 373.64 270.38C375.16 276.35 371.54 282.41 365.57 283.91C363.42 284.45 358.03 285.81 349.42 287.97L300.36 296.43" id="a24cwcUW5"></path><path d="M66.1 62.63C69.91 66.17 77.27 61.12 83.11 56.3C88.95 51.47 94.79 42.33 90.48 39.54C86.16 36.75 79.05 42.07 72.96 47.84C66.86 53.62 62.29 59.09 66.1 62.63Z" id="a1lv0HVYL1"></path><path d="M66.1 289.08C69.91 285.54 77.27 290.58 83.11 295.41C88.95 300.24 94.79 309.38 90.48 312.17C86.16 314.96 79.05 309.64 72.96 303.87C66.86 298.09 62.29 292.62 66.1 289.08Z" id="bK0DZJXIU"></path><path d="M68.48 59.14C68.27 59.07 68.13 58.87 68.13 58.65C68.13 58.2 68.13 57.17 68.13 56.71C68.13 56.51 68.22 56.33 68.37 56.2C71.67 53.31 81.03 45.15 84.25 42.33C84.64 41.99 85.19 41.9 85.67 42.1C86.33 42.37 87.29 42.76 87.89 43.01C88.42 43.23 88.6 43.9 88.24 44.36C86.65 46.35 82.63 51.41 81.05 53.4C80.57 54.01 80.01 54.56 79.39 55.02C77.95 56.11 74.25 58.91 72.73 60.06C72.4 60.31 71.96 60.38 71.56 60.24C70.88 60 69.22 59.41 68.48 59.14Z" id="b2xWfp8KVM"></path><path d="M68.48 292.43C68.27 292.5 68.13 292.7 68.13 292.92C68.13 293.37 68.13 294.39 68.13 294.86C68.13 295.05 68.22 295.24 68.37 295.37C71.67 298.25 81.03 306.42 84.25 309.23C84.64 309.57 85.19 309.67 85.67 309.47C86.33 309.2 87.29 308.8 87.89 308.56C88.42 308.34 88.6 307.66 88.24 307.21C86.65 305.22 82.63 300.15 81.05 298.16C80.57 297.56 80.01 297.01 79.39 296.54C77.95 295.45 74.25 292.65 72.73 291.51C72.4 291.25 71.96 291.19 71.56 291.33C70.88 291.57 69.22 292.16 68.48 292.43Z" id="b2XO0zHgtC"></path><path d="M45.98 100.69C51.46 101.7 61.21 94.6 67.11 85.26C73 75.91 68.93 65.96 64.06 64.74C59.18 63.52 52.73 72.41 48.21 81.4C43.69 90.38 40.49 99.68 45.98 100.69Z" id="c2kiR47uA"></path><path d="M45.98 250.71C51.46 249.7 61.21 256.8 67.11 266.15C73 275.49 68.93 285.45 64.06 286.67C59.18 287.88 52.73 278.99 48.21 270.01C43.69 261.02 40.49 251.72 45.98 250.71Z" id="aqhLA38f6"></path><path d="M47.2 96.61C52.28 98.44 61.42 89.71 64.26 83.2C67.11 76.7 66.5 69.8 62.43 67.76C59.72 66.41 55.59 70.61 50.04 80.37C44.76 89.98 43.81 95.39 47.2 96.61Z" id="dq0rBIsfC"></path><path d="M47.2 254.27C52.28 252.44 61.42 261.18 64.26 267.68C67.11 274.18 66.5 281.09 62.43 283.12C59.72 284.47 55.59 280.27 50.04 270.51C44.76 260.9 43.81 255.49 47.2 254.27Z" id="cnWSWLSWh"></path><path d="M37.58 175.96C38.78 160.38 39.42 147.71 39.49 137.96C39.59 124.22 41.96 114.73 37.58 114.33C35.23 114.11 32.29 115.98 28.76 119.93C27.67 121.15 27.02 122.68 26.88 124.31C26.32 131.19 24.92 148.41 22.68 175.96" id="a2EsCYPBrT"></path><path d="M37.58 175.96C38.78 191.54 39.42 204.21 39.49 213.96C39.59 227.7 41.96 237.19 37.58 237.59C35.23 237.81 32.29 235.94 28.76 231.98C27.67 230.77 27.02 229.24 26.88 227.61C26.32 220.73 24.92 203.51 22.68 175.96" id="b13GLEqhQv"></path><path d="M35.82 175.96L36.43 149.64C37.6 136.75 38.33 128.69 38.62 125.47C38.81 123.31 38.69 121.13 38.26 119.01C38.12 118.35 38.2 118.73 38.02 117.86C37.83 116.93 36.69 116.58 36.01 117.24C34.98 118.23 33.95 119.22 33.04 120.09C31.63 121.45 30.8 123.31 30.73 125.26C30.49 132.02 29.88 148.92 28.92 175.96" id="c2EnHgqNpe"></path><path d="M35.82 175.96L36.43 202.28C37.6 215.17 38.33 223.23 38.62 226.45C38.81 228.61 38.69 230.79 38.26 232.91C38.12 233.57 38.2 233.19 38.02 234.06C37.83 234.99 36.69 235.34 36.01 234.68C34.98 233.69 33.95 232.7 33.04 231.82C31.63 230.47 30.8 228.61 30.73 226.65C30.49 219.9 29.88 203 28.92 175.96" id="b25qoaqrOt"></path><path d="M237.92 175.96L57.12 175.96" id="ffP2s7hle"></path><path d="M277.39 10.58L286.73 33.55L292.83 40.38L298.31 44.52" id="a30p6hf59z"></path><path d="M277.08 341.34L286.43 318.37L292.52 311.54L298.01 307.4" id="c1OjP4Iq4i"></path><path d="M444.91 41.78L521.09 43.32C551.33 43.77 571.42 45.28 581.35 47.84C590.05 50.09 596.01 52.52 599.22 55.15C599.99 55.78 599.61 57.03 598.62 57.12C556.78 61.01 531.62 62.96 523.12 62.96C509.92 62.96 445.25 63.98 414.1 62.28C393.34 61.16 354.64 55.23 298.01 44.52" id="crjNf0vmC"></path><path d="M358.24 55.49L345.72 43.32" id="b67OWM5BS"></path><path d="M444.91 309.64L521.09 308.1C551.33 307.65 571.42 306.14 581.35 303.58C590.05 301.33 596.01 298.9 599.22 296.27C599.99 295.64 599.61 294.39 598.62 294.3C556.78 290.41 531.62 288.46 523.12 288.46C509.92 288.46 445.25 287.44 414.1 289.13C393.34 290.26 354.64 296.18 298.01 306.9" id="b2ZnP137q2"></path><path d="M358.24 295.23L345.72 307.4" id="barcFc8Dt"></path><path d="M503.14 43.32L523.12 63.26" id="cKTe7xzc"></path><path d="M503.14 308.87L523.12 288.93" id="aoS8K17ak"></path><path d="M756.09 325.22C743.51 331.54 734.85 335.94 730.11 338.42C725.86 340.65 716.66 344.03 702.51 348.57C700.42 349.24 698.17 349.29 696.05 348.73C695.49 348.58 694.09 348.2 691.85 347.61L606.2 345.19C585.68 345.19 572.86 345.19 567.73 345.19C564.73 345.19 561.75 344.74 558.88 343.85C557.78 343.51 558.06 343.6 556.78 343.2C554.53 342.5 552.19 342.15 549.84 342.15C531.76 342.15 486.56 342.15 414.24 342.15L353.64 341.34" id="b1sFjPJ9Ks"></path><path d="M756.09 25.9C743.51 19.58 734.85 15.18 730.11 12.7C725.86 10.47 716.66 7.09 702.51 2.55C700.42 1.88 698.17 1.83 696.05 2.39C695.49 2.54 694.09 2.92 691.85 3.51L606.2 5.93C585.68 5.93 572.86 5.93 567.73 5.93C564.73 5.93 561.75 6.38 558.88 7.27C557.78 7.61 558.06 7.52 556.78 7.92C554.53 8.62 552.19 8.97 549.84 8.97C531.76 8.97 486.56 8.97 414.24 8.97L353.64 9.78" id="h1RWE9Pf5G"></path><path d="M724.02 175.96C724.31 159.37 723.12 132.13 720.43 94.23C719.96 87.68 714.7 82.49 708.14 82.11C682.27 80.62 622.47 77.19 598.19 75.79C587.65 75.19 578.78 83.57 578.78 94.12C578.78 105.03 578.78 132.31 578.78 175.96" id="c1axSijrfF"></path><path d="M723.34 175.96C723.64 192.55 722.44 219.79 719.75 257.69C719.29 264.24 714.03 269.43 707.47 269.81C681.59 271.29 621.8 274.73 597.51 276.13C586.98 276.73 578.1 268.35 578.1 257.8C578.1 246.89 578.1 219.61 578.1 175.96" id="a10ePuSAne"></path><path d="M61.37 297.6L16.34 280.99L52.57 284.24" id="ar0F5AoZl"></path><path d="M61.43 54.32L16.4 70.93L52.63 67.68" id="abWEGU2sk"></path><path d="M328.25 20.01L281.19 20.01" id="a2YogQTOsg"></path><path d="M328.25 330.84L281.19 329.68" id="b3xdTpmxc"></path><path d="M593.34 5.97L537.82 23.24L504.3 21.89L500.24 17.49L490.08 15.46L470.78 17.49L469.43 21.89L414.25 20.01L349.58 20.01" id="be8FC8yDz"></path><path d="M593.34 345.08L537.82 327.81L504.3 329.17L500.24 333.57L490.08 335.6L470.78 333.57L469.43 329.17L414.25 331.05L349.58 331.05" id="d1b9BDsCTk"></path><path d="M503.14 20.87L501.25 23.24L494.14 23.24L485.34 25.9L468.41 21.89" id="eh0lneT2C"></path><path d="M504.5 329.68L502.61 327.31L495.5 327.31L486.7 324.65L469.77 328.67" id="e1wRBWwJrj"></path><path d="M414.58 20.01L414.58 8.68" id="akHTlJBL8"></path><path d="M414.58 342.21L414.58 330.84" id="a56cA430G"></path><path d="M436.59 20.87L489.74 14.61L499.9 8.68" id="bda35Som7"></path><path d="M436.76 330.43L489.91 336.7L500.07 342.62" id="cahFrPm71"></path><path d="M516.49 22.23L563.55 5.97L553.39 8.68L543.23 8.68L502.27 20.01" id="a6pW27j7Ts"></path><path d="M516.49 328.4L563.55 344.66L553.39 341.95L543.23 341.95L502.27 330.62" id="a1Mt9QtjlG"></path><path d="M755.07 34.08L745.25 32.39L748.3 38.48C710.61 30.13 681.83 24.71 661.97 22.23C642.1 19.74 606.89 18.16 556.34 17.49" id="eFLEX5cME"></path><path d="M755.07 317.32L745.25 319.01L748.3 312.92C710.61 321.27 681.83 326.69 661.97 329.17C642.1 331.65 606.89 333.23 556.34 333.91" id="m2gypsM0Td"></path><path d="M755.07 55.49L748.3 38.48" id="fihe1RCJH"></path><path d="M756.09 295.21L748.3 312.92" id="g4AelH1qIH"></path><path d="M756.09 32.72C745.7 25.05 737.35 19.97 731.03 17.49C724.71 15 713.43 11.17 697.18 5.97L694.13 3.25" id="c4qZ21aK78"></path><path d="M754.37 319.17C743.98 326.85 735.63 331.93 729.31 334.41C722.99 336.89 711.7 340.73 695.45 345.92L692.4 348.65" id="azAFxKFCo"></path><path d="M755.07 80.37C746.27 77.95 739.5 76.18 734.76 75.05C730.02 73.92 725.05 73.36 719.86 73.36L718.17 82.5C720.22 84.31 722.53 86.68 725.11 89.61C728.97 94.01 731.03 106.88 732.39 120.9C733.29 130.24 734.08 148.59 734.76 175.96" id="ailn7Ve8J"></path><path d="M755.07 271.54C746.27 273.96 739.5 275.74 734.76 276.87C730.02 278 725.05 278.56 719.86 278.56L718.17 269.42C720.22 267.61 722.53 265.24 725.11 262.31C728.97 257.91 731.03 245.04 732.39 231.02C733.29 221.68 734.08 203.32 734.76 175.96" id="b1pvCasLtZ"></path><path d="M779.78 99.43L729 99.43" id="fjoYdmkWS"></path><path d="M779.78 251.97L729 251.97" id="b1m37bFWgi"></path><path d="M781.31 95.71C783.27 95.71 784.86 97.29 784.86 99.25C784.86 100.17 784.86 99.37 784.86 100.29C784.86 102.24 783.27 103.83 781.31 103.83C778.03 103.83 771.72 103.83 768.43 103.83C766.47 103.83 764.89 102.24 764.89 100.29C764.89 99.37 764.89 100.17 764.89 99.25C764.89 97.29 766.47 95.71 768.43 95.71C771.72 95.71 778.03 95.71 781.31 95.71Z" id="aj7RrXMa5"></path><path d="M781.31 247.9C783.27 247.9 784.86 249.49 784.86 251.45C784.86 252.37 784.86 251.57 784.86 252.48C784.86 254.44 783.27 256.03 781.31 256.03C778.03 256.03 771.72 256.03 768.43 256.03C766.47 256.03 764.89 254.44 764.89 252.48C764.89 251.57 764.89 252.37 764.89 251.45C764.89 249.49 766.47 247.9 768.43 247.9C771.72 247.9 778.03 247.9 781.31 247.9Z" id="eGuSRnU47"></path><path d="M742.54 175.96L740.51 145.14L754.39 144.13L736.62 142.77L738.14 175.96" id="aCNJsS65v"></path><path d="M742.54 175.96L740.51 206.78L754.39 207.79L736.62 209.15L738.14 175.96" id="b34iRnaMa7"></path><path d="M723.38 86.9L746.6 89.95L756.09 94.01L756.09 87.92C756.76 88.59 755.29 88.03 751.68 86.22C746.27 83.52 722.91 79.45 711.73 78.77C704.29 78.32 697.29 78.86 690.74 80.37" id="b1qh4BJo1"></path><path d="M722.93 264.15L746.15 261.11L755.64 257.04L755.64 263.14C756.31 262.46 754.84 263.03 751.23 264.83C745.82 267.54 722.46 271.6 711.28 272.28C703.84 272.73 696.84 272.2 690.29 270.68" id="a9CrQgLr0"></path></defs><g><g><g><g><use xlink:href="#a1Jz32UZfT" opacity="1" fill-opacity="0" stroke="#021706" stroke-width="1" stroke-opacity="1"></use></g></g><g><g><use xlink:href="#j6EupHoHQ" opacity="1" fill-opacity="0" stroke="#021706" stroke-width="1" stroke-opacity="1"></use></g></g><g><g><use xlink:href="#daViYHaZj" opacity="1" fill-opacity="0" stroke="#021706" stroke-width="1" stroke-opacity="1"></use></g></g><g><g><use xlink:href="#a1AID193UI" opacity="1" fill-opacity="0" stroke="#021706" stroke-width="1" stroke-opacity="1"></use></g></g><g><g><use xlink:href="#acMe4nPJe" opacity="1" fill-opacity="0" stroke="#021706" stroke-width="1" stroke-opacity="1"></use></g></g><g><g><use xlink:href="#a3JXsNpia" opacity="1" fill-opacity="0" stroke="#021706" stroke-width="1" stroke-opacity="1"></use></g></g><g><g><use xlink:href="#b18ZyCV0w" opacity="1" fill-opacity="0" stroke="#021706" stroke-width="1" stroke-opacity="1"></use></g></g><g><g><use xlink:href="#a2ETaWqO6w" opacity="1" fill-opacity="0" stroke="#021706" stroke-width="1" stroke-opacity="1"></use></g></g><g><g><use xlink:href="#adUfRmNlF" opacity="1" fill-opacity="0" stroke="#021706" stroke-width="1" stroke-opacity="1"></use></g></g><g><g><use xlink:href="#blchOQcsA" opacity="1" fill-opacity="0" stroke="#021706" stroke-width="1" stroke-opacity="1"></use></g></g><g><g><use xlink:href="#a2E3rVqH9u" opacity="1" fill-opacity="0" stroke="#021706" stroke-width="1" stroke-opacity="1"></use></g></g><g><g><use xlink:href="#c2YzpYxSiE" opacity="1" fill-opacity="0" stroke="#021706" stroke-width="1" stroke-opacity="1"></use></g></g><g><g><use xlink:href="#dviC4C0Gz" opacity="1" fill-opacity="0" stroke="#021706" stroke-width="1" stroke-opacity="1"></use></g></g><g><g><use xlink:href="#d1gH38q6C5" opacity="1" fill-opacity="0" stroke="#021706" stroke-width="1" stroke-opacity="1"></use></g></g><g><g><use xlink:href="#a4gMGSpWor" opacity="1" fill-opacity="0" stroke="#021706" stroke-width="1" stroke-opacity="1"></use></g></g><g><g><use xlink:href="#derrlnt2x" opacity="1" fill-opacity="0" stroke="#021706" stroke-width="1" stroke-opacity="1"></use></g></g><g><g><use xlink:href="#a1thG4yFMx" opacity="1" fill-opacity="0" stroke="#021706" stroke-width="1" stroke-opacity="1"></use></g></g><g><g><use xlink:href="#d3CJiRNZtw" opacity="1" fill-opacity="0" stroke="#021706" stroke-width="1" stroke-opacity="1"></use></g></g><g><g><use xlink:href="#bVioK9C0F" opacity="1" fill-opacity="0" stroke="#021706" stroke-width="1" stroke-opacity="1"></use></g></g><g><g><use xlink:href="#c5z4O1yvzA" opacity="1" fill-opacity="0" stroke="#021706" stroke-width="1" stroke-opacity="1"></use></g></g><g><g><use xlink:href="#a2fbdYsRnO" opacity="1" fill-opacity="0" stroke="#021706" stroke-width="1" stroke-opacity="1"></use></g></g><g><g><use xlink:href="#b8s1kKzAcl" opacity="1" fill-opacity="0" stroke="#021706" stroke-width="1" stroke-opacity="1"></use></g></g><g><g><use xlink:href="#a49l0QBrAu" opacity="1" fill-opacity="0" stroke="#021706" stroke-width="1" stroke-opacity="1"></use></g></g><g><g><use xlink:href="#a52mqBksdI" opacity="1" fill-opacity="0" stroke="#021706" stroke-width="1" stroke-opacity="1"></use></g></g><g><g><use xlink:href="#anGsGVXqT" opacity="1" fill-opacity="0" stroke="#021706" stroke-width="1" stroke-opacity="1"></use></g></g><g><g><use xlink:href="#bTrovwYwG" opacity="1" fill-opacity="0" stroke="#021706" stroke-width="1" stroke-opacity="1"></use></g></g><g><g><use xlink:href="#a1KBXehTK" opacity="1" fill-opacity="0" stroke="#021706" stroke-width="1" stroke-opacity="1"></use></g></g><g><g><use xlink:href="#jYT1HTcSf" opacity="1" fill-opacity="0" stroke="#021706" stroke-width="1" stroke-opacity="1"></use></g></g><g><g><use xlink:href="#bFvKiP8WC" opacity="1" fill-opacity="0" stroke="#021706" stroke-width="1" stroke-opacity="1"></use></g></g><g><g><use xlink:href="#b1vpRo3KtC" opacity="1" fill-opacity="0" stroke="#021706" stroke-width="1" stroke-opacity="1"></use></g></g><g><g><use xlink:href="#a24cwcUW5" opacity="1" fill-opacity="0" stroke="#021706" stroke-width="1" stroke-opacity="1"></use></g></g><g><g><use xlink:href="#a1lv0HVYL1" opacity="1" fill-opacity="0" stroke="#021706" stroke-width="1" stroke-opacity="1"></use></g></g><g><g><use xlink:href="#bK0DZJXIU" opacity="1" fill-opacity="0" stroke="#021706" stroke-width="1" stroke-opacity="1"></use></g></g><g><g><use xlink:href="#b2xWfp8KVM" opacity="1" fill-opacity="0" stroke="#021706" stroke-width="1" stroke-opacity="1"></use></g></g><g><g><use xlink:href="#b2XO0zHgtC" opacity="1" fill-opacity="0" stroke="#021706" stroke-width="1" stroke-opacity="1"></use></g></g><g><g><use xlink:href="#c2kiR47uA" opacity="1" fill-opacity="0" stroke="#021706" stroke-width="1" stroke-opacity="1"></use></g></g><g><g><use xlink:href="#aqhLA38f6" opacity="1" fill-opacity="0" stroke="#021706" stroke-width="1" stroke-opacity="1"></use></g></g><g><g><use xlink:href="#dq0rBIsfC" opacity="1" fill-opacity="0" stroke="#021706" stroke-width="1" stroke-opacity="1"></use></g></g><g><g><use xlink:href="#cnWSWLSWh" opacity="1" fill-opacity="0" stroke="#021706" stroke-width="1" stroke-opacity="1"></use></g></g><g><g><use xlink:href="#a2EsCYPBrT" opacity="1" fill-opacity="0" stroke="#021706" stroke-width="1" stroke-opacity="1"></use></g></g><g><g><use xlink:href="#b13GLEqhQv" opacity="1" fill-opacity="0" stroke="#021706" stroke-width="1" stroke-opacity="1"></use></g></g><g><g><use xlink:href="#c2EnHgqNpe" opacity="1" fill-opacity="0" stroke="#021706" stroke-width="1" stroke-opacity="1"></use></g></g><g><g><use xlink:href="#b25qoaqrOt" opacity="1" fill-opacity="0" stroke="#021706" stroke-width="1" stroke-opacity="1"></use></g></g><g><g><use xlink:href="#ffP2s7hle" opacity="1" fill-opacity="0" stroke="#021706" stroke-width="1" stroke-opacity="1"></use></g></g><g><g><use xlink:href="#a30p6hf59z" opacity="1" fill-opacity="0" stroke="#021706" stroke-width="1" stroke-opacity="1"></use></g></g><g><g><use xlink:href="#c1OjP4Iq4i" opacity="1" fill-opacity="0" stroke="#021706" stroke-width="1" stroke-opacity="1"></use></g></g><g><g><use xlink:href="#crjNf0vmC" opacity="1" fill-opacity="0" stroke="#021706" stroke-width="1" stroke-opacity="1"></use></g></g><g><g><use xlink:href="#b67OWM5BS" opacity="1" fill-opacity="0" stroke="#021706" stroke-width="1" stroke-opacity="1"></use></g></g><g><g><use xlink:href="#b2ZnP137q2" opacity="1" fill-opacity="0" stroke="#021706" stroke-width="1" stroke-opacity="1"></use></g></g><g><g><use xlink:href="#barcFc8Dt" opacity="1" fill-opacity="0" stroke="#021706" stroke-width="1" stroke-opacity="1"></use></g></g><g><g><use xlink:href="#cKTe7xzc" opacity="1" fill-opacity="0" stroke="#021706" stroke-width="1" stroke-opacity="1"></use></g></g><g><g><use xlink:href="#aoS8K17ak" opacity="1" fill-opacity="0" stroke="#021706" stroke-width="1" stroke-opacity="1"></use></g></g><g><g><use xlink:href="#b1sFjPJ9Ks" opacity="1" fill-opacity="0" stroke="#021706" stroke-width="1" stroke-opacity="1"></use></g></g><g><g><use xlink:href="#h1RWE9Pf5G" opacity="1" fill-opacity="0" stroke="#021706" stroke-width="1" stroke-opacity="1"></use></g></g><g><g><use xlink:href="#c1axSijrfF" opacity="1" fill-opacity="0" stroke="#021706" stroke-width="1" stroke-opacity="1"></use></g></g><g><g><use xlink:href="#a10ePuSAne" opacity="1" fill-opacity="0" stroke="#021706" stroke-width="1" stroke-opacity="1"></use></g></g><g><g><use xlink:href="#ar0F5AoZl" opacity="1" fill-opacity="0" stroke="#021706" stroke-width="1" stroke-opacity="1"></use></g></g><g><g><use xlink:href="#abWEGU2sk" opacity="1" fill-opacity="0" stroke="#021706" stroke-width="1" stroke-opacity="1"></use></g></g><g><g><use xlink:href="#a2YogQTOsg" opacity="1" fill-opacity="0" stroke="#021706" stroke-width="1" stroke-opacity="1"></use></g></g><g><g><use xlink:href="#b3xdTpmxc" opacity="1" fill-opacity="0" stroke="#021706" stroke-width="1" stroke-opacity="1"></use></g></g><g><g><use xlink:href="#be8FC8yDz" opacity="1" fill-opacity="0" stroke="#021706" stroke-width="1" stroke-opacity="1"></use></g></g><g><g><use xlink:href="#d1b9BDsCTk" opacity="1" fill-opacity="0" stroke="#021706" stroke-width="1" stroke-opacity="1"></use></g></g><g><g><use xlink:href="#eh0lneT2C" opacity="1" fill-opacity="0" stroke="#021706" stroke-width="1" stroke-opacity="1"></use></g></g><g><g><use xlink:href="#e1wRBWwJrj" opacity="1" fill-opacity="0" stroke="#021706" stroke-width="1" stroke-opacity="1"></use></g></g><g><g><use xlink:href="#akHTlJBL8" opacity="1" fill-opacity="0" stroke="#021706" stroke-width="1" stroke-opacity="1"></use></g></g><g><g><use xlink:href="#a56cA430G" opacity="1" fill-opacity="0" stroke="#021706" stroke-width="1" stroke-opacity="1"></use></g></g><g><g><use xlink:href="#bda35Som7" opacity="1" fill-opacity="0" stroke="#021706" stroke-width="1" stroke-opacity="1"></use></g></g><g><g><use xlink:href="#cahFrPm71" opacity="1" fill-opacity="0" stroke="#021706" stroke-width="1" stroke-opacity="1"></use></g></g><g><g><use xlink:href="#a6pW27j7Ts" opacity="1" fill-opacity="0" stroke="#021706" stroke-width="1" stroke-opacity="1"></use></g></g><g><g><use xlink:href="#a1Mt9QtjlG" opacity="1" fill-opacity="0" stroke="#021706" stroke-width="1" stroke-opacity="1"></use></g></g><g><g><use xlink:href="#eFLEX5cME" opacity="1" fill-opacity="0" stroke="#021706" stroke-width="1" stroke-opacity="1"></use></g></g><g><g><use xlink:href="#m2gypsM0Td" opacity="1" fill-opacity="0" stroke="#021706" stroke-width="1" stroke-opacity="1"></use></g></g><g><g><use xlink:href="#fihe1RCJH" opacity="1" fill-opacity="0" stroke="#021706" stroke-width="1" stroke-opacity="1"></use></g></g><g><g><use xlink:href="#g4AelH1qIH" opacity="1" fill-opacity="0" stroke="#021706" stroke-width="1" stroke-opacity="1"></use></g></g><g><g><use xlink:href="#c4qZ21aK78" opacity="1" fill-opacity="0" stroke="#021706" stroke-width="1" stroke-opacity="1"></use></g></g><g><g><use xlink:href="#azAFxKFCo" opacity="1" fill-opacity="0" stroke="#021706" stroke-width="1" stroke-opacity="1"></use></g></g><g><g><use xlink:href="#ailn7Ve8J" opacity="1" fill-opacity="0" stroke="#021706" stroke-width="1" stroke-opacity="1"></use></g></g><g><g><use xlink:href="#b1pvCasLtZ" opacity="1" fill-opacity="0" stroke="#021706" stroke-width="1" stroke-opacity="1"></use></g></g><g><g><use xlink:href="#fjoYdmkWS" opacity="1" fill-opacity="0" stroke="#021706" stroke-width="1" stroke-opacity="1"></use></g></g><g><g><use xlink:href="#b1m37bFWgi" opacity="1" fill-opacity="0" stroke="#021706" stroke-width="1" stroke-opacity="1"></use></g></g><g><g><use xlink:href="#aj7RrXMa5" opacity="1" fill-opacity="0" stroke="#021706" stroke-width="1" stroke-opacity="1"></use></g></g><g><g><use xlink:href="#eGuSRnU47" opacity="1" fill-opacity="0" stroke="#021706" stroke-width="1" stroke-opacity="1"></use></g></g><g><g><use xlink:href="#aCNJsS65v" opacity="1" fill-opacity="0" stroke="#021706" stroke-width="1" stroke-opacity="1"></use></g></g><g><g><use xlink:href="#b34iRnaMa7" opacity="1" fill-opacity="0" stroke="#021706" stroke-width="1" stroke-opacity="1"></use></g></g><g><g><use xlink:href="#b1qh4BJo1" opacity="1" fill-opacity="0" stroke="#021706" stroke-width="1" stroke-opacity="1"></use></g></g><g><g><use xlink:href="#a9CrQgLr0" opacity="1" fill-opacity="0" stroke="#021706" stroke-width="1" stroke-opacity="1"></use></g></g></g></g></svg>