<?xml version="1.0" encoding="UTF-8" standalone="no"?>
<!DOCTYPE svg PUBLIC "-//W3C//DTD SVG 1.1//EN" "http://www.w3.org/Graphics/SVG/1.1/DTD/svg11.dtd">
<svg version="1.1" xmlns="http://www.w3.org/2000/svg" xmlns:xlink="http://www.w3.org/1999/xlink" preserveAspectRatio="xMidYMid meet" viewBox="0 0 820 234" width="820" height="234"><defs><path d="M25.19 169.53L26.19 153.74L21.19 153.54L21.99 169.53L25.19 169.53Z" id="fbvxWCxIR"></path><path d="M29.14 171.9L30.55 165.07L70.17 162.44L74.56 169.02L106.69 166.34C106.37 161.74 106.71 157.26 107.71 152.9C109.65 144.45 113.72 135.3 124.35 121.93C141.83 99.96 193.2 91.37 278.47 96.16L296.91 74.59C281.98 75.41 271.36 75.82 265.05 75.82C255.58 75.82 199.18 82.93 178.85 85.59C158.51 88.24 113.55 95.92 101.45 99.07C89.35 102.23 69.1 101.41 52.47 118.34C41.38 129.62 32.02 147.48 24.41 171.9L29.14 171.9Z" id="e4vbEbeyUv"></path><path d="M265.82 75.95L271.61 69.15C264.28 69.15 259.49 69.22 257.22 69.35C253.82 69.55 232.43 73.35 228.84 73.75C225.24 74.15 186.06 78.14 179.07 79.54C174.4 80.48 157.01 82.74 126.89 86.34C93.71 93.4 74.59 97.53 69.53 98.73C61.93 100.53 52.34 106.33 42.94 112.53C36.68 116.66 31.1 130.33 26.19 153.54" id="b1rgi0gfTZ"></path><path d="M40.34 113.82L37.75 111.03L31.35 125.22L32.55 129.62" id="bbWGtIZat"></path><path d="M38.15 104.63L42.14 108.63L39.94 113.22L37.55 111.03L38.74 108.83L34.35 106.63L38.15 104.63Z" id="b3OZuofZq"></path><path d="M270.61 69.39L274.01 65.05L247.43 65.85L230.04 67.25C154.35 76.98 114.37 82.11 110.1 82.64C103.71 83.44 64.13 93.44 59.13 94.64C55.8 95.43 48.84 98.57 38.25 104.03" id="a10i1Pz1UN"></path><path d="M229.84 67.25L183.46 78.64" id="b3XrPSUofD"></path><path d="M123.3 86.84L102.91 84.04" id="c52jB9yOnB"></path><path d="M136.69 84.94L118.5 81.24" id="b1M1Wi2wsk"></path><path d="M571.48 205.89C570.28 193.1 569.62 183.7 569.48 177.71C569.28 168.71 568.23 155.61 577.88 139.17C587.52 122.73 610.81 107.49 634.45 108.39C658.08 109.29 676.57 121.23 688.32 138.12C693.54 145.64 697 158.41 696.85 169.04C696.67 182.31 692.14 192.94 692.91 193.94C693.85 195.14 700.68 195.47 713.4 194.94C724.1 186.94 735.42 180.81 747.38 176.55C765.32 170.15 802.75 169.55 805.95 168.35C808.08 167.55 808.08 163.5 805.95 156.18C803.42 156.38 801.22 155.95 799.35 154.88C797.49 153.81 795.09 144.32 792.16 126.4L789.96 122.4L788.96 117.4C777.28 98.61 770.18 87.62 767.65 84.42C763.85 79.62 721.48 69.03 720.08 68.03C719.14 67.36 718.88 66.43 719.28 65.23C628.62 42.91 581.76 30.29 578.7 27.35C574.1 22.96 576.63 20.61 574.63 17.21C572.63 13.81 514.12 6.25 465.82 6.27C431.52 6.28 407.46 8.06 381.47 13.26C355.48 18.46 313.71 37.65 309.11 39.45C306.05 40.65 288.86 49.24 257.54 65.23" id="d1JJKELxTc"></path><path d="M29.48 171.93L34.23 172.65L37.48 195.64L21.24 195.64L21.24 197.64L27.19 197.64L22.95 207.88L2 207.13L2 210.88L14.24 210.88L16.19 213.53L121.3 212.53C118.68 203.16 116.58 193.92 115.02 184.83C113.91 178.37 113.81 173.91 113.5 166.65C112.4 140.42 140.37 105.69 176.35 106.18C190.5 106.37 208.7 110.88 220.96 122.22C228.28 128.99 234.07 138.3 238.33 150.14C239.52 153.47 240.2 156.96 240.34 160.49C241.06 178.55 240.99 189.52 240.13 193.39C239.13 197.89 235.22 203.72 228.39 210.88L423.73 209.13L571.51 205.89" id="d7ZIWW6ynJ"></path><path d="M361.4 18.75L369.59 21.75C361.06 25.21 354.47 28.01 349.8 30.14C345.14 32.28 336.14 37.01 322.82 44.34C310.62 52.79 301.42 58.19 295.23 60.53C290.3 62.39 283.23 63.9 274.01 65.05" id="aeNkHJNCI"></path><path d="M322.62 43.94L308.03 39.94" id="ctQFeKB0"></path><path d="M369.59 16.75C374.12 17.68 376.39 19.48 376.39 22.15C376.39 23.88 374.12 25.35 369.59 26.55C364.77 28.33 360.73 29.99 357.49 31.53C341.07 39.33 332.84 44.07 329.62 45.74C323.82 48.73 302.63 61.73 295.23 64.33C290.3 66.06 282.1 67.67 270.61 69.15" id="a37kvUcZZg"></path><path d="M240.47 167.87L273.05 167.47C272.78 154.41 272.78 143.75 273.05 135.48C273.31 127.22 274.65 114.16 277.05 96.31" id="bmmEkfEMK"></path><path d="M267.37 167.43L265.77 182.28L261.71 193.85L262.51 167.87" id="c2JsnDCnl"></path><path d="M264.54 186.02L265.97 189.61L265.97 193.85L275.17 193.85L272.77 187.01L273.17 167.43" id="d1mlOmJOuJ"></path><path d="M701.36 194.61C706.35 154.23 698.16 143.64 688.76 129.05C679.37 114.46 656.98 101.86 634.19 102.06C607.61 102.3 595.02 110.66 580.42 126.85C570.7 137.64 564.97 150.37 563.23 165.03L480.65 169.03L266.57 177.02" id="c1JYkI3L09"></path><path d="M247.26 208.6L248.66 196.21L251.86 193.85L496.16 191.01L519.35 205.89L247.26 208.6Z" id="elPUlv29J"></path><path d="M261.71 210.6C261.84 210.27 262.08 209.6 262.45 208.6L261.71 193.85" id="b7YrjSwJn"></path><path d="M277.05 100.26L470.22 95.67L471.66 98.67L275.93 104.03" id="d3YYOhMHvJ"></path><path d="M332.49 74.59L505.6 72.28C507.19 74.28 508.93 77.41 510.79 81.68C512.66 85.94 513.26 90.6 512.59 95.67L511.99 99.85C509.99 106.39 508.26 112.12 506.79 117.05C505.33 121.99 496.8 139.18 481.21 168.63C475.61 174.76 471.35 179.55 468.42 183.02C465.48 186.48 460.09 189.15 452.23 191.01" id="b2KxhfP6ak"></path><path d="M496.2 99.85C494.87 102.79 491.27 104.33 485.41 104.46C479.54 104.6 476.21 103.06 475.41 99.85" id="bD74lNLO"></path><path d="M495.6 94.47C494.27 91.8 491 90.47 485.81 90.47C480.61 90.47 477.14 91.8 475.41 94.47" id="b1eX9oc5tT"></path><path d="M472.61 99.85L501 99.85L503 96.87L501 94.87L472.61 94.87L471.02 97.17L472.61 99.85Z" id="a39uZkceW0"></path><path d="M501.8 98.67L544.57 98.67L522.99 95.67L501.8 95.67" id="bH7qkD6VG"></path><path d="M563.27 165.07C563.81 183.19 563.61 192.72 562.67 193.65C562.32 194.01 559.66 193.57 553.52 193.65C543.7 193.78 526.29 193.78 501.31 193.65L548.28 189.65C522.7 186.06 506.24 184.26 498.91 184.26C491.58 184.26 480.32 184.66 465.13 185.46" id="a1fC0GvaF"></path><path d="M569.07 176.4L485.81 177.4L472.93 177.4" id="deDH0VL5E"></path><path d="M719.72 147.02C726.87 146.31 733.22 145.78 738.75 145.41C752.64 144.48 760.75 143.95 761.89 142.62C763.49 140.75 764.09 133.16 763.69 119.83C755.7 101.71 750.83 91.92 749.1 90.47C746.5 88.29 734.31 85.05 718.32 83.05C702.33 81.06 594.26 83.45 581.86 86.65C569.47 89.85 557.48 93.25 542.49 106.64C532.49 115.57 521.36 132.69 509.1 158.01" id="a4WZWPySZ1"></path><path d="M806.47 158.41L748.3 159.01C737.64 159.14 730.31 157.81 726.31 155.01C722.32 152.21 717.78 144.75 712.72 132.63L791.88 126.83" id="j1pka41xth"></path><path d="M746.7 130.83L746.7 133.03L713.72 135.22" id="ghub2Auws"></path><path d="M800.87 120.63L791.1 122.84L681.34 129.23" id="a4tNdjp7Z"></path><path d="M766.69 86.65C770.02 87.32 776.48 96.18 786.08 113.24L785.48 116.24C784.98 116.67 784.66 116.94 784.53 117.05C783.21 118.21 781.52 118.86 779.76 118.92C777.54 118.99 771.98 119.16 763.09 119.43L759.09 118.23L755.7 115.04L746.7 98.67C745.77 97.19 745.57 95.31 746.1 93.05C746.63 90.78 749.5 88.98 754.7 87.65C759.36 86.32 763.36 85.99 766.69 86.65Z" id="b10jSdOcWe"></path><path d="M791.88 126.83L796.67 124.03C793.74 115.64 790.68 108.11 787.48 101.44C782.68 91.45 776.48 82.45 777.28 79.06C778.08 75.66 781.68 73.66 784.08 75.06C786.48 76.46 788.88 82.85 793.07 92.47C795.87 98.88 798.47 108.27 800.87 120.63" id="a2o9UB46fl"></path><path d="M746.5 58.45L750.3 59.73L775.48 70.82L781.28 70.82L785.68 76.22" id="b8U7qhbNn"></path><path d="M763.34 3.19C762.4 3.93 755.68 3.98 755.3 5.34C755.03 6.29 754.83 7.98 754.7 10.4C754.96 27.85 755.16 37.58 755.3 39.58C755.5 42.58 759.64 44 762.04 45.2C764.44 46.4 778.55 44.08 789.04 42.55C799.54 41.03 813.39 38.48 814.99 37.28C816.05 36.48 816.68 34.92 816.86 32.58C817.47 17.97 817.84 8.84 818 5.18C818.03 4.32 817.34 3.6 816.47 3.6C809.45 3.6 791.9 3.6 763.81 3.6L762.89 2C760.37 2.24 758.8 2.38 758.17 2.44C757.06 2.55 755.96 2.76 754.88 3.07C749 4.78 744.8 6.95 742.3 9.57C739.77 12.22 736.17 27.75 731.49 55.39C731 58.29 730.5 61.08 729.99 63.75" id="b3ESjeCiW5"></path><path d="M746.05 68.39C747.8 32.62 749.26 13.99 750.42 12.49C751.59 11 752.96 10.5 754.55 11" id="a1mp7y1BU6"></path><path d="M775.66 71.01C772.91 72.34 770.08 73.14 767.16 73.38C764.25 73.63 749.38 70.26 722.56 63.27L719.94 61.14L719.32 65.14" id="a1MzIxZ4ft"></path><path d="M719.69 60.77L725.81 57.27L730.68 59.02" id="a3aBDMSLCz"></path><path d="M766.09 66.76L763.17 68.39L746.5 64.02" id="adHpujP0d"></path><path d="M720.06 60.02C628.86 36.86 582.43 24.79 580.77 23.79C578.27 22.29 580.77 13.67 578.14 13.42C576.39 13.25 575.19 14.54 574.52 17.29" id="c63LduG5A"></path><path d="M797.54 169.94C793.15 190.06 789.59 200.92 786.88 202.52C785.24 203.49 774.16 203.97 753.65 201.96C740.25 200.65 722.84 198.37 701.4 195.13" id="aa4NtLKlwr"></path><path d="M785.68 169.94C780.8 187.8 777.69 197.59 776.36 199.33C775.02 201.06 773.16 202.12 770.76 202.52" id="aVBXfhnh8"></path><path d="M76.63 195.73L35.85 195.73" id="d1I3RqdToW"></path><path d="M57.04 135.96C63.44 127.77 69.63 112.57 66.43 111.03C63.24 109.48 56.04 116.37 49.64 124.45C43.25 132.52 42.2 139.68 44.05 142.56C45.9 145.44 50.64 144.16 57.04 135.96Z" id="aCkdBDNMC"></path><path d="M68.3 130.76C72.9 132.76 76.43 128.97 83.02 123.97C89.62 118.97 93.02 112.57 89.62 108.33C86.22 104.08 76.54 112.2 70.83 117.57C66.25 121.88 63.7 128.77 68.3 130.76Z" id="a4ynfvKusi"></path><path d="M186.85 172.03C186.85 177.82 182.14 182.52 176.35 182.52C170.56 182.52 165.86 177.82 165.86 172.03C165.86 166.24 170.56 161.54 176.35 161.54C182.14 161.54 186.85 166.24 186.85 172.03Z" id="f50lkpN4md"></path><path d="M183.71 172.36C183.71 176.39 180.44 179.66 176.41 179.66C172.38 179.66 169.12 176.39 169.12 172.36C169.12 168.34 172.38 165.07 176.41 165.07C180.44 165.07 183.71 168.34 183.71 172.36Z" id="b4TNueLbPB"></path><path d="M112.69 166.34L106.69 166.34" id="a4OzWUa2w"></path><path d="M232.11 171.9C232.11 203.07 206.8 228.37 175.64 228.37C144.47 228.37 119.17 203.07 119.17 171.9C119.17 140.74 144.47 115.44 175.64 115.44C206.8 115.44 232.11 140.74 232.11 171.9Z" id="fCyEyyfHA"></path><path d="M221.04 171.9C221.04 197.28 200.44 217.88 175.07 217.88C149.69 217.88 129.09 197.28 129.09 171.9C129.09 146.53 149.69 125.93 175.07 125.93C200.44 125.93 221.04 146.53 221.04 171.9Z" id="b3ZBZzA9l8"></path><path d="M235.78 172.03C235.78 205.13 208.91 232 175.81 232C142.72 232 115.85 205.13 115.85 172.03C115.85 138.93 142.72 112.07 175.81 112.07C208.91 112.07 235.78 138.93 235.78 172.03Z" id="a3xBAnT30Z"></path><path d="M127.95 207.75L120.14 207.75" id="b5QCNW2mc"></path><path d="M231.15 206.75L224.9 206.75" id="arkgd2KSw"></path><path d="M336.09 58.83C340.58 56.83 346.83 56.42 354.83 57.58L354.83 68.33C346.5 68.33 340.92 68.83 338.08 69.82C335.25 70.82 330.39 76.03 323.5 85.44L312.1 84.94C323.59 69.53 331.59 60.83 336.09 58.83Z" id="b8h1DgAke"></path><path d="M505.7 72.28C543.68 70.64 567 68.97 575.66 67.27C588.65 64.72 602.89 53.58 601.14 44.59C599.4 35.59 560.92 28.6 523.94 22.35C486.96 16.11 444.77 17.6 414.04 18.75C383.31 19.9 342.33 44.34 334.09 48.09C328.59 50.59 315.86 59.42 295.91 74.59" id="aQtPV9bID"></path><path d="M319.68 74.59L295.91 74.59" id="b1ZY0KG4N9"></path><path d="M351.91 56.94L359.65 35.59" id="b247i3Vzqe"></path><path d="M349.16 69.15L346.41 74.59" id="b23cdG1G"></path><path d="M501.8 71.87L524.49 22.38" id="b2PVraeSn"></path><path d="M692.88 172.56C692.88 205.65 666.01 232.52 632.92 232.52C599.82 232.52 572.95 205.65 572.95 172.56C572.95 139.46 599.82 112.59 632.92 112.59C666.01 112.59 692.88 139.46 692.88 172.56Z" id="b3vbNYfHZ"></path><path d="M688.96 172.9C688.96 204.07 663.66 229.37 632.49 229.37C601.32 229.37 576.02 204.07 576.02 172.9C576.02 141.74 601.32 116.44 632.49 116.44C663.66 116.44 688.96 141.74 688.96 172.9Z" id="b8b4d0sI0"></path><path d="M679.75 172.8C679.75 198.18 659.15 218.78 633.78 218.78C608.4 218.78 587.8 198.18 587.8 172.8C587.8 147.43 608.4 126.83 633.78 126.83C659.15 126.83 679.75 147.43 679.75 172.8Z" id="aCdLa7fcr"></path><path d="M643.35 172.56C643.35 178.35 638.65 183.05 632.86 183.05C627.06 183.05 622.36 178.35 622.36 172.56C622.36 166.76 627.06 162.06 632.86 162.06C638.65 162.06 643.35 166.76 643.35 172.56Z" id="aAty640ws"></path><path d="M640.45 172.9C640.45 176.93 637.18 180.2 633.15 180.2C629.12 180.2 625.86 176.93 625.86 172.9C625.86 168.88 629.12 165.61 633.15 165.61C637.18 165.61 640.45 168.88 640.45 172.9Z" id="aaUL5Qnc2k"></path><path d="M580.89 202.35L571.18 202.35" id="bwEuqA6F"></path><path d="M694.11 194.61L690.54 194.61L688.96 192.93" id="aaavdfjIWB"></path><path d="M114.97 212.03C112.44 203.5 110.58 196.5 109.39 191.01C108.2 185.53 107.3 177.3 106.69 166.34" id="aeF0No520"></path><path d="M90.96 213.03L74.59 168.43" id="aIcsIT1RV"></path><path d="M37.01 140.53L30.42 164.52" id="bCZud5DCw"></path></defs><g><g><g><g><use xlink:href="#fbvxWCxIR" opacity="1" fill-opacity="0" stroke="#000000" stroke-width="1" stroke-opacity="1"></use></g></g><g><g><use xlink:href="#e4vbEbeyUv" opacity="1" fill-opacity="0" stroke="#000000" stroke-width="1" stroke-opacity="1"></use></g></g><g><g><use xlink:href="#b1rgi0gfTZ" opacity="1" fill-opacity="0" stroke="#000000" stroke-width="1" stroke-opacity="1"></use></g></g><g><g><use xlink:href="#bbWGtIZat" opacity="1" fill-opacity="0" stroke="#000000" stroke-width="1" stroke-opacity="1"></use></g></g><g><g><use xlink:href="#b3OZuofZq" opacity="1" fill-opacity="0" stroke="#000000" stroke-width="1" stroke-opacity="1"></use></g></g><g><g><use xlink:href="#a10i1Pz1UN" opacity="1" fill-opacity="0" stroke="#000000" stroke-width="1" stroke-opacity="1"></use></g></g><g><g><use xlink:href="#b3XrPSUofD" opacity="1" fill-opacity="0" stroke="#000000" stroke-width="1" stroke-opacity="1"></use></g></g><g><g><use xlink:href="#c52jB9yOnB" opacity="1" fill-opacity="0" stroke="#000000" stroke-width="1" stroke-opacity="1"></use></g></g><g><g><use xlink:href="#b1M1Wi2wsk" opacity="1" fill-opacity="0" stroke="#000000" stroke-width="1" stroke-opacity="1"></use></g></g><g><g><use xlink:href="#d1JJKELxTc" opacity="1" fill-opacity="0" stroke="#000000" stroke-width="1" stroke-opacity="1"></use></g></g><g><g><use xlink:href="#d7ZIWW6ynJ" opacity="1" fill-opacity="0" stroke="#000000" stroke-width="1" stroke-opacity="1"></use></g></g><g><g><use xlink:href="#aeNkHJNCI" opacity="1" fill-opacity="0" stroke="#000000" stroke-width="1" stroke-opacity="1"></use></g></g><g><g><use xlink:href="#ctQFeKB0" opacity="1" fill-opacity="0" stroke="#000000" stroke-width="1" stroke-opacity="1"></use></g></g><g><g><use xlink:href="#a37kvUcZZg" opacity="1" fill-opacity="0" stroke="#000000" stroke-width="1" stroke-opacity="1"></use></g></g><g><g><use xlink:href="#bmmEkfEMK" opacity="1" fill-opacity="0" stroke="#000000" stroke-width="1" stroke-opacity="1"></use></g></g><g><g><use xlink:href="#c2JsnDCnl" opacity="1" fill-opacity="0" stroke="#000000" stroke-width="1" stroke-opacity="1"></use></g></g><g><g><use xlink:href="#d1mlOmJOuJ" opacity="1" fill-opacity="0" stroke="#000000" stroke-width="1" stroke-opacity="1"></use></g></g><g><g><use xlink:href="#c1JYkI3L09" opacity="1" fill-opacity="0" stroke="#000000" stroke-width="1" stroke-opacity="1"></use></g></g><g><g><use xlink:href="#elPUlv29J" opacity="1" fill-opacity="0" stroke="#000000" stroke-width="1" stroke-opacity="1"></use></g></g><g><g><use xlink:href="#b7YrjSwJn" opacity="1" fill-opacity="0" stroke="#000000" stroke-width="1" stroke-opacity="1"></use></g></g><g><g><use xlink:href="#d3YYOhMHvJ" opacity="1" fill-opacity="0" stroke="#000000" stroke-width="1" stroke-opacity="1"></use></g></g><g><g><use xlink:href="#b2KxhfP6ak" opacity="1" fill-opacity="0" stroke="#000000" stroke-width="1" stroke-opacity="1"></use></g></g><g><g><use xlink:href="#bD74lNLO" opacity="1" fill-opacity="0" stroke="#000000" stroke-width="1" stroke-opacity="1"></use></g></g><g><g><use xlink:href="#b1eX9oc5tT" opacity="1" fill-opacity="0" stroke="#000000" stroke-width="1" stroke-opacity="1"></use></g></g><g><g><use xlink:href="#a39uZkceW0" opacity="1" fill-opacity="0" stroke="#000000" stroke-width="1" stroke-opacity="1"></use></g></g><g><g><use xlink:href="#bH7qkD6VG" opacity="1" fill-opacity="0" stroke="#000000" stroke-width="1" stroke-opacity="1"></use></g></g><g><g><use xlink:href="#a1fC0GvaF" opacity="1" fill-opacity="0" stroke="#000000" stroke-width="1" stroke-opacity="1"></use></g></g><g><g><use xlink:href="#deDH0VL5E" opacity="1" fill-opacity="0" stroke="#000000" stroke-width="1" stroke-opacity="1"></use></g></g><g><g><use xlink:href="#a4WZWPySZ1" opacity="1" fill-opacity="0" stroke="#000000" stroke-width="1" stroke-opacity="1"></use></g></g><g><g><use xlink:href="#j1pka41xth" opacity="1" fill-opacity="0" stroke="#000000" stroke-width="1" stroke-opacity="1"></use></g></g><g><g><use xlink:href="#ghub2Auws" opacity="1" fill-opacity="0" stroke="#000000" stroke-width="1" stroke-opacity="1"></use></g></g><g><g><use xlink:href="#a4tNdjp7Z" opacity="1" fill-opacity="0" stroke="#000000" stroke-width="1" stroke-opacity="1"></use></g></g><g><g><use xlink:href="#b10jSdOcWe" opacity="1" fill-opacity="0" stroke="#000000" stroke-width="1" stroke-opacity="1"></use></g></g><g><g><use xlink:href="#a2o9UB46fl" opacity="1" fill-opacity="0" stroke="#000000" stroke-width="1" stroke-opacity="1"></use></g></g><g><g><use xlink:href="#b8U7qhbNn" opacity="1" fill-opacity="0" stroke="#000000" stroke-width="1" stroke-opacity="1"></use></g></g><g><g><use xlink:href="#b3ESjeCiW5" opacity="1" fill-opacity="0" stroke="#000000" stroke-width="1" stroke-opacity="1"></use></g></g><g><g><use xlink:href="#a1mp7y1BU6" opacity="1" fill-opacity="0" stroke="#000000" stroke-width="1" stroke-opacity="1"></use></g></g><g><g><use xlink:href="#a1MzIxZ4ft" opacity="1" fill-opacity="0" stroke="#000000" stroke-width="1" stroke-opacity="1"></use></g></g><g><g><use xlink:href="#a3aBDMSLCz" opacity="1" fill-opacity="0" stroke="#000000" stroke-width="1" stroke-opacity="1"></use></g></g><g><g><use xlink:href="#adHpujP0d" opacity="1" fill-opacity="0" stroke="#000000" stroke-width="1" stroke-opacity="1"></use></g></g><g><g><use xlink:href="#c63LduG5A" opacity="1" fill-opacity="0" stroke="#000000" stroke-width="1" stroke-opacity="1"></use></g></g><g><g><use xlink:href="#aa4NtLKlwr" opacity="1" fill-opacity="0" stroke="#000000" stroke-width="1" stroke-opacity="1"></use></g></g><g><g><use xlink:href="#aVBXfhnh8" opacity="1" fill-opacity="0" stroke="#000000" stroke-width="1" stroke-opacity="1"></use></g></g><g><g><use xlink:href="#d1I3RqdToW" opacity="1" fill-opacity="0" stroke="#000000" stroke-width="1" stroke-opacity="1"></use></g></g><g><g><use xlink:href="#aCkdBDNMC" opacity="1" fill-opacity="0" stroke="#000000" stroke-width="1" stroke-opacity="1"></use></g></g><g><g><use xlink:href="#a4ynfvKusi" opacity="1" fill-opacity="0" stroke="#000000" stroke-width="1" stroke-opacity="1"></use></g></g><g><g><use xlink:href="#f50lkpN4md" opacity="1" fill-opacity="0" stroke="#000000" stroke-width="1" stroke-opacity="1"></use></g></g><g><g><use xlink:href="#b4TNueLbPB" opacity="1" fill-opacity="0" stroke="#000000" stroke-width="1" stroke-opacity="1"></use></g></g><g><g><use xlink:href="#a4OzWUa2w" opacity="1" fill-opacity="0" stroke="#021706" stroke-width="1" stroke-opacity="1"></use></g></g><g><g><use xlink:href="#fCyEyyfHA" opacity="1" fill-opacity="0" stroke="#000000" stroke-width="1" stroke-opacity="1"></use></g></g><g><g><use xlink:href="#b3ZBZzA9l8" opacity="1" fill-opacity="0" stroke="#000000" stroke-width="1" stroke-opacity="1"></use></g></g><g><g><use xlink:href="#a3xBAnT30Z" opacity="1" fill-opacity="0" stroke="#000000" stroke-width="1" stroke-opacity="1"></use></g></g><g><g><use xlink:href="#b5QCNW2mc" opacity="1" fill-opacity="0" stroke="#021706" stroke-width="1" stroke-opacity="1"></use></g></g><g><g><use xlink:href="#arkgd2KSw" opacity="1" fill-opacity="0" stroke="#021706" stroke-width="1" stroke-opacity="1"></use></g></g><g><g><use xlink:href="#b8h1DgAke" opacity="1" fill-opacity="0" stroke="#021706" stroke-width="1" stroke-opacity="1"></use></g></g><g><g><use xlink:href="#aQtPV9bID" opacity="1" fill-opacity="0" stroke="#021706" stroke-width="1" stroke-opacity="1"></use></g></g><g><g><use xlink:href="#b1ZY0KG4N9" opacity="1" fill-opacity="0" stroke="#021706" stroke-width="1" stroke-opacity="1"></use></g></g><g><g><use xlink:href="#b247i3Vzqe" opacity="1" fill-opacity="0" stroke="#021706" stroke-width="1" stroke-opacity="1"></use></g></g><g><g><use xlink:href="#b23cdG1G" opacity="1" fill-opacity="0" stroke="#021706" stroke-width="1" stroke-opacity="1"></use></g></g><g><g><use xlink:href="#b2PVraeSn" opacity="1" fill-opacity="0" stroke="#021706" stroke-width="1" stroke-opacity="1"></use></g></g><g><g><use xlink:href="#b3vbNYfHZ" opacity="1" fill-opacity="0" stroke="#000000" stroke-width="1" stroke-opacity="1"></use></g></g><g><g><use xlink:href="#b8b4d0sI0" opacity="1" fill-opacity="0" stroke="#000000" stroke-width="1" stroke-opacity="1"></use></g></g><g><g><use xlink:href="#aCdLa7fcr" opacity="1" fill-opacity="0" stroke="#000000" stroke-width="1" stroke-opacity="1"></use></g></g><g><g><use xlink:href="#aAty640ws" opacity="1" fill-opacity="0" stroke="#000000" stroke-width="1" stroke-opacity="1"></use></g></g><g><g><use xlink:href="#aaUL5Qnc2k" opacity="1" fill-opacity="0" stroke="#000000" stroke-width="1" stroke-opacity="1"></use></g></g><g><g><use xlink:href="#bwEuqA6F" opacity="1" fill-opacity="0" stroke="#021706" stroke-width="1" stroke-opacity="1"></use></g></g><g><g><use xlink:href="#aaavdfjIWB" opacity="1" fill-opacity="0" stroke="#021706" stroke-width="1" stroke-opacity="1"></use></g></g><g><g><use xlink:href="#aeF0No520" opacity="1" fill-opacity="0" stroke="#021706" stroke-width="1" stroke-opacity="1"></use></g></g><g><g><use xlink:href="#aIcsIT1RV" opacity="1" fill-opacity="0" stroke="#021706" stroke-width="1" stroke-opacity="1"></use></g></g><g><g><use xlink:href="#bCZud5DCw" opacity="1" fill-opacity="0" stroke="#021706" stroke-width="1" stroke-opacity="1"></use></g></g></g></g></svg>